<?xml version="1.0" encoding="UTF-8" standalone="no"?>
<!DOCTYPE svg PUBLIC "-//W3C//DTD SVG 1.1//EN"
 "http://www.w3.org/Graphics/SVG/1.1/DTD/svg11.dtd">
<!-- Generated by graphviz version 8.1.0 (20230707.0739)
 -->
<!-- Title: SourceGraph Pages: 1 -->
<svg width="1364pt" height="116pt"
 viewBox="0.00 0.00 1363.95 116.00" xmlns="http://www.w3.org/2000/svg" xmlns:xlink="http://www.w3.org/1999/xlink">
<g id="graph0" class="graph" transform="scale(1 1) rotate(0) translate(4 112)">
<title>SourceGraph</title>
<polygon fill="white" stroke="none" points="-4,4 -4,-112 1359.95,-112 1359.95,4 -4,4"/>
<!-- 0 -->
<g id="node1" class="node">
<title>0</title>
<ellipse fill="none" stroke="black" cx="109.45" cy="-18" rx="109.45" ry="18"/>
<text text-anchor="middle" x="109.45" y="-12.57" font-family="Times New Roman,serif" font-size="14.00">ass01.simple.Example.java</text>
</g>
<!-- 1 -->
<g id="node2" class="node">
<title>1</title>
<ellipse fill="none" stroke="black" cx="364.45" cy="-90" rx="98.47" ry="18"/>
<text text-anchor="middle" x="364.45" y="-84.58" font-family="Times New Roman,serif" font-size="14.00">ass01.simple.Other.java</text>
</g>
<!-- 2 -->
<g id="node3" class="node">
<title>2</title>
<ellipse fill="none" stroke="black" cx="749.45" cy="-18" rx="98.97" ry="18"/>
<text text-anchor="middle" x="749.45" y="-12.57" font-family="Times New Roman,serif" font-size="14.00">ass01.tricky.Tricky.java</text>
</g>
<!-- 3 -->
<g id="node4" class="node">
<title>3</title>
<ellipse fill="none" stroke="black" cx="1274.45" cy="-90" rx="81.5" ry="18"/>
<text text-anchor="middle" x="1274.45" y="-84.58" font-family="Times New Roman,serif" font-size="14.00">ass01.util.Utils.java</text>
</g>
<!-- 4 -->
<g id="node5" class="node">
<title>4</title>
<ellipse fill="none" stroke="black" cx="46.45" cy="-90" rx="31.6" ry="18"/>
<text text-anchor="middle" x="46.45" y="-84.58" font-family="Times New Roman,serif" font-size="14.00">Other</text>
</g>
<!-- 4&#45;&gt;0 -->
<g id="edge1" class="edge">
<title>4&#45;&gt;0</title>
<path fill="none" stroke="black" d="M60.43,-73.46C68.24,-64.78 78.17,-53.75 87.04,-43.89"/>
<polygon fill="black" stroke="black" points="89.09,-46.74 93.18,-36.96 83.89,-42.05 89.09,-46.74"/>
</g>
<!-- 5 -->
<g id="node6" class="node">
<title>5</title>
<ellipse fill="none" stroke="black" cx="172.45" cy="-90" rx="76.01" ry="18"/>
<text text-anchor="middle" x="172.45" y="-84.58" font-family="Times New Roman,serif" font-size="14.00">dtu.deps.util.Utils</text>
</g>
<!-- 5&#45;&gt;0 -->
<g id="edge2" class="edge">
<title>5&#45;&gt;0</title>
<path fill="none" stroke="black" d="M157.2,-72.05C149.72,-63.75 140.57,-53.58 132.29,-44.38"/>
<polygon fill="black" stroke="black" points="135.29,-42.37 125.99,-37.28 130.08,-47.05 135.29,-42.37"/>
</g>
<!-- 6 -->
<g id="node7" class="node">
<title>6</title>
<ellipse fill="none" stroke="black" cx="523.45" cy="-90" rx="42.58" ry="18"/>
<text text-anchor="middle" x="523.45" y="-84.58" font-family="Times New Roman,serif" font-size="14.00">Example</text>
</g>
<!-- 6&#45;&gt;2 -->
<g id="edge3" class="edge">
<title>6&#45;&gt;2</title>
<path fill="none" stroke="black" d="M556.42,-78.11C562.73,-76.06 569.29,-73.94 575.45,-72 613.24,-60.07 655.8,-47.09 689.37,-36.97"/>
<polygon fill="black" stroke="black" points="689.92,-40.16 698.49,-33.92 687.9,-33.46 689.92,-40.16"/>
</g>
<!-- 7 -->
<g id="node8" class="node">
<title>7</title>
<ellipse fill="none" stroke="black" cx="619.45" cy="-90" rx="35.1" ry="18"/>
<text text-anchor="middle" x="619.45" y="-84.58" font-family="Times New Roman,serif" font-size="14.00">Tricky</text>
</g>
<!-- 7&#45;&gt;2 -->
<g id="edge4" class="edge">
<title>7&#45;&gt;2</title>
<path fill="none" stroke="black" d="M642.99,-76.32C661.39,-66.42 687.4,-52.41 709.1,-40.72"/>
<polygon fill="black" stroke="black" points="710.58,-43.36 717.73,-35.54 707.26,-37.2 710.58,-43.36"/>
</g>
<!-- 8 -->
<g id="node9" class="node">
<title>8</title>
<ellipse fill="none" stroke="black" cx="749.45" cy="-90" rx="76.51" ry="18"/>
<text text-anchor="middle" x="749.45" y="-84.58" font-family="Times New Roman,serif" font-size="14.00">dtu.deps.simple.*</text>
</g>
<!-- 8&#45;&gt;2 -->
<g id="edge5" class="edge">
<title>8&#45;&gt;2</title>
<path fill="none" stroke="black" d="M749.45,-71.7C749.45,-64.24 749.45,-55.32 749.45,-46.97"/>
<polygon fill="black" stroke="black" points="752.95,-47.1 749.45,-37.1 745.95,-47.1 752.95,-47.1"/>
</g>
<!-- 9 -->
<g id="node10" class="node">
<title>9</title>
<ellipse fill="none" stroke="black" cx="907.45" cy="-90" rx="63.54" ry="18"/>
<text text-anchor="middle" x="907.45" y="-84.58" font-family="Times New Roman,serif" font-size="14.00">dtu.deps.util.*</text>
</g>
<!-- 9&#45;&gt;2 -->
<g id="edge6" class="edge">
<title>9&#45;&gt;2</title>
<path fill="none" stroke="black" d="M874.32,-74.33C851.48,-64.2 820.8,-50.61 795.56,-39.43"/>
<polygon fill="black" stroke="black" points="797.39,-35.97 786.83,-35.12 794.56,-42.37 797.39,-35.97"/>
</g>
<!-- 10 -->
<g id="node11" class="node">
<title>10</title>
<ellipse fill="none" stroke="black" cx="1082.45" cy="-90" rx="92.98" ry="18"/>
<text text-anchor="middle" x="1082.45" y="-84.58" font-family="Times New Roman,serif" font-size="14.00">dtu.deps.simple.Other</text>
</g>
<!-- 10&#45;&gt;2 -->
<g id="edge7" class="edge">
<title>10&#45;&gt;2</title>
<path fill="none" stroke="black" d="M1020.98,-76.08C965.05,-64.32 882.39,-46.95 822.97,-34.46"/>
<polygon fill="black" stroke="black" points="824.04,-30.89 813.53,-32.26 822.6,-37.74 824.04,-30.89"/>
</g>
</g>
</svg>
